<?xml version="1.0" encoding="UTF-8"?>
<svg id="Layer_1" data-name="Layer 1" xmlns="http://www.w3.org/2000/svg" version="1.1" viewBox="0 0 902 252">
  <defs>
    <style>
      .cls-1 {
        fill: #e95a42;
      }

      .cls-1, .cls-2, .cls-3, .cls-4 {
        stroke-width: 0px;
      }

      .cls-2 {
        fill: #000;
      }

      .cls-3 {
        fill: #fff;
      }

      .cls-4 {
        fill: #22baed;
      }
    </style>
  </defs>
  <g>
    <polygon class="cls-3" points="172.9 124.1 131.3 113 153.6 29.7 48 90.6 89.6 101.8 67.3 185.1 172.9 124.1"/>
    <g>
      <polygon class="cls-4" points="6.4 79.5 67.3 185.1 89.6 101.8 48 90.6 6.4 79.5"/>
      <polygon class="cls-4" points="70.3 7.4 48 90.6 153.6 29.7 70.3 7.4"/>
      <polygon class="cls-1" points="150.6 207.4 172.9 124.1 67.3 185.1 150.6 207.4"/>
      <polygon class="cls-1" points="153.6 29.7 131.3 113 172.9 124.1 214.5 135.3 153.6 29.7"/>
    </g>
  </g>
  <g>
    <path class="cls-2" d="M284.9,98.9c-1.5,1.8-3.5,3.5-6,4.9-2.8,1.6-6.2,2.4-10.1,2.4s-5.4-.5-7.9-1.5-4.7-2.5-6.5-4.4c-1.9-1.9-3.3-4.2-4.4-6.8s-1.6-5.6-1.6-8.9.5-6.3,1.6-9c1-2.7,2.5-5,4.4-6.9s4.1-3.4,6.5-4.4c2.5-1,5.2-1.5,8-1.5s6.7.6,9.6,1.9c2.5,1.1,4.7,2.8,6.5,4.8l18.8-22.7c-4.3-3.8-9.6-6.8-15.8-9.1-6.6-2.4-13.6-3.6-21-3.6s-14,1.2-20.3,3.6c-6.3,2.4-11.9,5.8-16.5,10.2s-8.4,9.7-11.1,15.9-4,13.2-4,20.8,1.4,14.5,4,20.6c2.7,6.1,6.4,11.5,11.1,15.9,4.6,4.4,10.2,7.9,16.5,10.3,6.3,2.4,13.2,3.6,20.3,3.6s15.2-1.3,21.5-3.8c6-2.4,11.2-5.7,15.3-9.8l-18.8-22.6h-.1Z"/>
    <path class="cls-2" d="M404.5,105c2.7-6.3,4-13.3,4-20.9s-1.4-14.6-4-20.7c-2.7-6.1-6.4-11.4-11.2-15.7-4.7-4.3-10.4-7.7-16.9-10s-13.6-3.5-21.1-3.5-14.6,1.2-21.1,3.5c-6.4,2.3-12.1,5.7-16.8,10-4.7,4.3-8.4,9.6-11.1,15.7-2.7,6.1-4,13.1-4,20.7s1.4,14.7,4,20.9c2.7,6.3,6.4,11.7,11.1,16.1,4.7,4.4,10.3,7.9,16.8,10.3,6.5,2.4,13.6,3.6,21.1,3.6s14.6-1.2,21.1-3.6c6.4-2.4,12.1-5.9,16.9-10.3,4.7-4.4,8.5-9.8,11.2-16.1ZM374,93.2c-1,2.7-2.4,5.1-4.2,7.1-1.8,2-4,3.6-6.4,4.7-2.4,1.1-5.1,1.7-8,1.7s-5.6-.6-8-1.7c-2.5-1.1-4.6-2.7-6.4-4.7s-3.2-4.4-4.1-7.1c-1-2.7-1.5-5.8-1.5-9.1s.5-6.2,1.5-8.9,2.4-5,4.2-6.9c1.8-1.9,3.9-3.3,6.4-4.4,2.5-1,5.2-1.6,8-1.6s5.5.5,8,1.6c2.4,1,4.6,2.5,6.4,4.4s3.2,4.2,4.2,6.9,1.5,5.7,1.5,8.9-.5,6.3-1.5,9.1h-.1Z"/>
    <path class="cls-2" d="M476.3,88.6c0,.4-.4.6-.8.6h-.7c-.4,0-.7-.2-.8-.6l-17.4-51.7h-41.2v95.4h28.7l-1.5-54c0-.2,0-.5.2-.6.2-.2.4-.3.6-.3h.7c.4,0,.7.2.8.6l17.6,54.3h21.8l17.9-54.2c0-.4.5-.6.8-.6s0,0,0,0h.8c.4.2.7.6.7,1l-.9,53.7h30.1V36.8h-42.6l-15.1,51.7h.2Z"/>
    <path class="cls-2" d="M622.1,83.7c2.2-4.1,3.3-9.1,3.3-15s-1.1-11.3-3.3-15.3-5.2-7.3-8.8-9.7-7.8-4.2-12.5-5.2-9.5-1.6-14.4-1.6h-40.9v95.4h30.8v-30.4c0-.5.4-.9.9-.9h9.2c4.9,0,9.8-.6,14.5-1.8s8.9-3,12.5-5.6,6.5-5.9,8.7-10h0ZM591.3,76c-2.2,1.3-4.6,2-7.2,2h-6.9c-.5,0-.9-.4-.9-.9v-15.6c0-.5.4-.9.9-.9h6.9c1.2,0,2.5.1,3.7.4,1.3.2,2.5.7,3.5,1.3,1.1.6,2,1.5,2.6,2.6s.9,2.5.9,4.2c0,3.2-1.2,5.6-3.5,7h0Z"/>
    <path class="cls-2" d="M723.9,132.4l-37.2-95.4h-33.5l-37.6,95.4h32.7l4.6-13.7c0-.4.5-.6.8-.6h30.9c.4,0,.7.2.8.6l4.9,13.7h33.7-.1ZM678,94.5c-.2.2-.4.4-.7.4h-15.8c-.3,0-.5-.1-.7-.4-.2-.2-.2-.5,0-.8l8-24c0-.4.5-.6.8-.6h0c.4,0,.7.2.8.6l7.8,24c0,.3,0,.6,0,.8Z"/>
    <path class="cls-2" d="M817.3,132.4l-23.8-38.1c0-.2-.2-.5,0-.7,0-.2.2-.4.5-.5,5.3-2.4,9.4-5.8,12.2-10.2s4.2-9.5,4.2-15.2-1.1-11-3.3-14.9-5.1-7.1-8.7-9.4c-3.6-2.4-7.7-4-12.3-5-4.6-.9-9.4-1.4-14-1.4h-41v95.4h30v-34.4h0c.3,0,0-.1.3.1l20.7,34.2h35.4-.2ZM778.7,73.7c-.8,1.2-1.9,2.1-3.2,2.7-1.2.6-2.5,1.1-4,1.3-1.3.2-2.6.3-3.7.3h-6.4c-.5,0-.9-.4-.9-.9v-15.6c0-.5.4-.9.9-.9h7.8c1,0,2.2,0,3.4.2,1.3.1,2.5.5,3.6,1,1.1.6,2.1,1.4,2.8,2.6.7,1.1,1.1,2.7,1.1,4.6s-.4,3.5-1.3,4.7h0Z"/>
    <path class="cls-2" d="M853.2,106.1v-9.1c0-.5.4-.9.9-.9h33v-23.7h-33c-.5,0-.9-.4-.9-.9v-8.4c0-.5.4-.9.9-.9h35.2v-25.4h-65.1v95.4h67.4v-25.4h-37.6c-.5,0-.9-.4-.9-.9v.2Z"/>
  </g>
  <g>
    <path class="cls-2" d="M226.3,210.2c4.9,0,9.8-.6,14.5-1.8,4.7-1.2,8.9-3,12.5-5.6s6.5-5.9,8.7-10,3.3-9.1,3.3-15-1.1-11.3-3.3-15.3c-2.2-4-5.2-7.3-8.8-9.7-3.6-2.4-7.8-4.2-12.5-5.2s-9.5-1.6-14.4-1.6h-40.9v95.4h30.8v-30.4c0-.5.4-.9.9-.9h9.2,0ZM216.2,186.2v-15.6c0-.5.4-.9.9-.9h6.9c1.2,0,2.5.1,3.7.4,1.3.2,2.5.7,3.5,1.3,1.1.6,2,1.5,2.6,2.6s.9,2.5.9,4.2c0,3.2-1.2,5.6-3.5,7-2.2,1.3-4.6,2-7.2,2h-6.9c-.5,0-.9-.4-.9-.9h0Z"/>
    <path class="cls-2" d="M373.4,214.1c2.7-6.3,4-13.3,4-20.9s-1.4-14.6-4-20.7c-2.7-6.1-6.4-11.4-11.2-15.7-4.7-4.3-10.4-7.7-16.9-10-6.5-2.3-13.6-3.5-21.1-3.5s-14.6,1.2-21.1,3.5c-6.4,2.3-12.1,5.7-16.8,10-4.7,4.3-8.4,9.6-11.1,15.7s-4,13.1-4,20.7,1.4,14.7,4,20.9c2.7,6.3,6.4,11.7,11.1,16.1s10.3,7.9,16.8,10.3,13.6,3.6,21.1,3.6,14.6-1.2,21.1-3.6c6.4-2.4,12.1-5.9,16.9-10.3,4.7-4.4,8.5-9.8,11.2-16.1ZM342.8,202.3c-1,2.7-2.4,5.1-4.2,7.1-1.8,2-4,3.6-6.4,4.7s-5.1,1.7-8,1.7-5.6-.6-8-1.7c-2.5-1.1-4.6-2.7-6.4-4.7s-3.2-4.4-4.1-7.1c-1-2.7-1.5-5.8-1.5-9.1s.5-6.2,1.5-8.9c1-2.7,2.4-5,4.2-6.9,1.8-1.9,3.9-3.3,6.4-4.4,2.5-1,5.2-1.6,8-1.6s5.5.5,8,1.6c2.4,1,4.6,2.5,6.4,4.4s3.2,4.2,4.2,6.9c1,2.7,1.5,5.7,1.5,8.9s-.5,6.3-1.5,9.1h-.1Z"/>
    <path class="cls-2" d="M490.5,146l-10.4,53.9c0,.4-.4.7-.9.7h-.5c-.4,0-.8-.3-.8-.7l-12.1-53.9h-32.8l-11.1,53.9c0,.4-.4.7-.9.7h-.5c-.4,0-.8-.3-.9-.7l-10.3-53.9h-32.7l26,95.4h31.6l14-54.2c0-.4.4-.7.8-.7h.5c.4,0,.7.3.8.7l13.6,54.2h31.6l26.6-95.4h-31.6,0Z"/>
    <path class="cls-2" d="M560.2,215.2v-9.1c0-.5.4-.9.9-.9h33v-23.7h-33c-.5,0-.9-.4-.9-.9v-8.4c0-.5.4-.9.9-.9h35.2v-25.4h-65.1v95.4h67.4v-25.4h-37.6c-.5,0-.9-.4-.9-.9v.2Z"/>
    <path class="cls-2" d="M698.6,241.5l-23.8-38.1c0-.2-.2-.5,0-.7,0-.2.2-.4.5-.5,5.3-2.4,9.4-5.8,12.2-10.2,2.8-4.4,4.2-9.5,4.2-15.2s-1.1-11-3.3-14.9-5.1-7.1-8.7-9.4c-3.6-2.4-7.7-4-12.3-5-4.6-.9-9.4-1.4-14-1.4h-41v95.4h30v-33.9c0-.5.4-.9.9-.9h1c.3,0,.6.2.8.5l18.4,34.3h35.4-.3ZM660,182.8c-.8,1.2-1.9,2.1-3.2,2.7-1.2.6-2.5,1.1-4,1.3-1.3.2-2.6.3-3.7.3h-6.4c-.5,0-.9-.4-.9-.9v-15.6c0-.5.4-.9.9-.9h7.8c1,0,2.2,0,3.4.2,1.3.1,2.5.5,3.6,1,1.1.6,2.1,1.4,2.8,2.6.7,1.1,1.1,2.7,1.1,4.6s-.4,3.5-1.3,4.7h0Z"/>
    <g>
      <path class="cls-2" d="M722.6,222.5c-1.1-2-2.6-3.5-4.6-4.7s-4.2-1.7-6.8-1.7-4.8.6-6.7,1.7-3.5,2.7-4.5,4.7c-1.1,2-1.6,4.2-1.6,6.6s.6,4.7,1.7,6.7c1.1,2,2.6,3.6,4.6,4.7,1.9,1.2,4.2,1.7,6.7,1.7s4.8-.6,6.8-1.7c1.9-1.2,3.5-2.7,4.6-4.7s1.7-4.2,1.7-6.7-.6-4.6-1.7-6.5h-.2ZM720.3,234.5c-.9,1.6-2.1,2.9-3.7,3.8-1.6.9-3.4,1.4-5.5,1.4s-3.8-.5-5.4-1.4c-1.6-.9-2.8-2.2-3.6-3.8-.9-1.6-1.3-3.4-1.3-5.4s.4-3.8,1.3-5.3c.9-1.6,2.1-2.8,3.6-3.8,1.6-1,3.3-1.4,5.4-1.4s3.9.5,5.5,1.4c1.6,1,2.8,2.2,3.7,3.8s1.3,3.3,1.3,5.3-.4,3.8-1.3,5.4Z"/>
      <path class="cls-2" d="M715.2,229c.8-.7,1.2-1.6,1.2-2.7s-.4-2-1.2-2.7-1.8-1.1-3.1-1.1h-5.2v13h2.9v-5.4h.3l3.9,5.4h3.4l-4.2-5.4c.8-.1,1.6-.5,2.1-1h-.1ZM709.7,224.7h2.1c.5,0,1,.2,1.3.5s.5.7.5,1.2-.2.8-.5,1.1c-.3.3-.8.4-1.3.4h-2.1v-3.2Z"/>
    </g>
  </g>
</svg>